<?xml version="1.0"?>
<svg xmlns="http://www.w3.org/2000/svg" xmlns:xlink="http://www.w3.org/1999/xlink" version="1.1" id="Layer_1" x="0px" y="0px" viewBox="0 0 512.035 512.035" style="enable-background:new 0 0 512.035 512.035;" xml:space="preserve" width="512px" height="512px" class=""><g><g transform="translate(1 1)">
	<polygon style="fill:#6C5CE7" points="50.476,255.035 460.076,485.435 326.103,255.035 460.076,24.635  " data-original="#FFE100" class="" data-old_color="#6c5ce7"/>
	<polygon style="fill:#FFFFFF;" points="391.809,63.035 7.809,255.035 391.809,447.035 50.476,255.035  " data-original="#FFFFFF"/>
	<polygon style="fill:#201B46" points="456.663,30.608 326.103,255.035 456.663,479.461 502.743,502.501 340.609,255.035    502.743,7.568  " data-original="#FFA800" class="active-path" data-old_color="#201b46"/>
	<path d="M502.743,511.035c-1.707,0-2.56,0-3.413-0.853L4.396,262.715c-3.413-1.707-5.12-4.267-5.12-7.68   c0-3.413,1.707-5.973,5.12-7.68L499.329-0.112c3.413-1.707,6.827-0.853,9.387,1.707s2.56,6.827,0.853,10.24l-158.72,243.2   l81.067,123.733c2.56,4.267,1.707,9.387-2.56,11.947c-4.267,2.56-9.387,1.707-11.947-2.56l-83.627-128   c-1.707-2.56-1.707-6.827,0-9.387L478.849,29.755L26.583,255.035l451.413,225.28l-27.307-41.813   c-2.56-4.267-1.707-9.387,2.56-11.947c4.267-2.56,9.387-1.707,11.947,2.56l44.373,68.267c1.707,3.413,1.707,7.68-0.853,10.24   C507.863,510.181,505.303,511.035,502.743,511.035z" data-original="#000000" class="" style="fill:#000000"/>
	<path d="M434.476,408.635c0,5.12,3.413,8.533,8.533,8.533s8.533-3.413,8.533-8.533c0-5.12-3.413-8.533-8.533-8.533   S434.476,403.515,434.476,408.635" data-original="#000000" class="" style="fill:#000000"/>
</g></g> </svg>
