<svg height="496pt" viewBox="0 0 496 496" width="496pt" xmlns="http://www.w3.org/2000/svg" xmlns:xlink="http://www.w3.org/1999/xlink"><linearGradient id="a" gradientUnits="userSpaceOnUse" x1="248" x2="248" y1="496" y2="0"><stop offset="0" stop-color="#9f2fff"/><stop offset="1" stop-color="#0bb1d3"/></linearGradient><path d="m16 496h-16v-16h16zm464 0h16v-16h-16zm-386.265625 0h-61.734375v-16h23.535156c-9.597656-9.710938-15.535156-23.039062-15.535156-37.734375 0-19.035156 10.207031-36.816406 26.65625-46.410156l6.929688-4.039063c-14.25-.960937-25.585938-12.746094-25.585938-27.230468v-1.171876c0-15.109374 12.296875-27.414062 27.414062-27.414062 4.234376 0 8.480469 1 12.265626 2.894531l7.320312 3.664063 23.128906-18.503906c7.351563-5.878907 13.078125-13.597657 16.566406-22.328126l5.410157-13.511718c2.582031-6.472656 3.894531-13.285156 3.894531-20.253906v-5.714844l-33.34375-8.335938 13.726562-68.628906c2.90625-14.539062 13.527344-26.210938 27.738282-30.472656l55.878906-16.761719v-18.925781c-9.878906-10.105469-16-23.90625-16-39.113282v-24.007812c0-30.878906 25.128906-56 56-56s56 25.121094 56 56v24c0 15.214844-6.121094 29.015625-16 39.113281v18.925781l55.878906 16.769532c14.199219 4.253906 24.832032 15.933594 27.738282 30.472656l13.726562 68.628906-33.34375 8.335938v5.714844c0 6.96875 1.3125 13.78125 3.894531 20.253906l5.410157 13.511718c3.496093 8.730469 9.214843 16.449219 16.566406 22.328126l23.128906 18.503906 7.320312-3.664063c3.792969-1.894531 8.03125-2.894531 12.265626-2.894531 15.117187 0 27.414062 12.304688 27.414062 27.414062v1.171876c0 14.484374-11.335938 26.269531-25.585938 27.230468l6.929688 4.039063c16.449219 9.59375 26.65625 27.375 26.65625 46.410156 0 14.695313-5.9375 28.023437-15.535156 37.734375h23.535156v16zm327.546875-86.328125-53.433594-31.167969c-.367187 6.089844-2.816406 11.769532-7.160156 16.121094l-39.785156 39.78125 11.21875 6.730469-8.234375 13.71875-25-15-49.640625-29.785157-37.933594 37.929688 6.222656 6.222656c16.625 16.625 38.722656 25.777344 62.234375 25.777344h122.496094c20.804687 0 37.734375-16.929688 37.734375-37.734375 0-13.371094-7.167969-25.859375-18.71875-32.59375zm-234.800781-94.414063 11.113281-3.898437c25.285156-9.480469 48.496094-23.480469 68.832031-41.542969 25.421875-22.601562 45.527344-51.230468 58.160157-82.808594l7.597656-19-24.421875-7.328124c-26.953125 41.082031-65.105469 72.472656-110.859375 90.777343l-4.902344 1.957031v19.738282c0 14.3125-1.960938 28.375-5.519531 42.105468zm117.519531-42.105468v-19.777344c-8.191406 10.183594-17.191406 19.722656-26.953125 28.402344-21.800781 19.375-46.695313 34.390625-74 44.621094l-20.304687 7.128906c12.28125 6.5625 38.257812 18.472656 65.257812 18.472656 28.425781 0 55.574219-13.097656 66.992188-19.398438-7.214844-19.074218-10.992188-39.035156-10.992188-59.449218zm-139.71875 81.695312c2.3125 1.175782 4.496094 2.617188 6.34375 4.464844l14.0625 14.0625c1.671875 1.664062 3.984375 2.625 6.34375 2.625 13.769531 0 24.96875 11.199219 24.96875 24.96875v3.71875l8 8 22.761719-22.757812 30 18 3.238281-3.242188v-3.71875c0-13.769531 11.199219-24.96875 24.96875-24.96875 2.359375 0 4.671875-.960938 6.34375-2.625l14.0625-14.0625c1.847656-1.847656 4.03125-3.289062 6.34375-4.464844-3.398438-2.304687-6.453125-5.03125-9.046875-8.191406-12.855469 7.113281-42.558594 21.34375-74.671875 21.34375s-61.816406-14.230469-74.671875-21.351562c-2.59375 3.167968-5.648437 5.894531-9.046875 8.199218zm185.09375 28.464844c1.695312-1.695312 2.625-3.945312 2.625-6.34375 0-4.945312-4.023438-8.96875-8.96875-8.96875-2.359375 0-4.671875.960938-6.34375 2.625l-14.0625 14.0625c-4.648438 4.648438-11.082031 7.3125-17.65625 7.3125-4.945312 0-8.96875 4.023438-8.96875 8.96875v10.34375l-5.097656 5.09375 15.859375 9.515625zm-205.375-6.34375c0 2.398438.929688 4.648438 2.625 6.34375l53.375 53.375 12.6875-12.6875-12.6875-12.6875v-10.34375c0-4.945312-4.023438-8.96875-8.96875-8.96875-6.574219 0-13.007812-2.664062-17.65625-7.3125l-14.0625-14.0625c-1.671875-1.664062-3.984375-2.625-6.34375-2.625-4.945312 0-8.96875 4.023438-8.96875 8.96875zm192-109.007812v-1.714844l-16 4v2.90625c0 19.441406 3.664062 38.457031 10.878906 56.519531 2.25 5.625 6.410156 10.335937 11.695313 13.28125l59.496093 33.046875h18.515626c6.292968 0 11.414062-5.121094 11.414062-11.414062v-1.171876c0-6.292968-5.121094-11.414062-11.414062-11.414062-1.769532 0-3.53125.414062-5.113282 1.207031l-16.480468 8.242188-31.128907-24.90625c-9.503906-7.597657-16.902343-17.582031-21.429687-28.871094l-5.410156-13.511719c-3.328126-8.375-5.023438-17.183594-5.023438-26.199218zm19.929688-79.535157c-1.160157-5.800781-4.496094-10.691406-9.019532-14.167969l-7.476562 18.695313c-5.289063 13.222656-11.839844 25.941406-19.441406 38.007813v22.800781l46.65625-11.664063zm-83.929688-57.90625c-7.289062 3.472657-15.40625 5.480469-24 5.480469s-16.710938-2.007812-24-5.480469v9.945313c5.207031 4.472656 15.257812 11.535156 24 11.535156s18.792969-7.0625 24-11.535156zm-64-50.519531c0 22.054688 17.945312 40 40 40s40-17.945312 40-40v-24c0-22.054688-17.945312-40-40-40s-40 17.945312-40 40zm-78.65625 162.089844 46.65625 11.664062v-45.753906h16v28.136719c40.734375-16.527344 74.9375-44.214844 99.703125-80.273438l-9.679687-2.902343c-6.269532 5.351562-19.582032 15.039062-34.023438 15.039062s-27.753906-9.6875-34.023438-15.039062l-57.265624 17.183593c-8.511719 2.550781-14.894532 9.558594-16.640626 18.28125zm-53.929688 133.910156h18.515626l59.496093-33.046875c5.285157-2.9375 9.445313-7.65625 11.703125-13.289063 7.207032-18.054687 10.871094-37.070312 10.871094-56.511718v-2.90625l-16-4v1.714844c0 9.015624-1.695312 17.832031-5.039062 26.191406l-5.410157 13.519531c-4.519531 11.296875-11.925781 21.28125-21.429687 28.871094l-31.128906 24.90625-16.480469-8.242188c-1.566407-.792969-3.335938-1.207031-5.097657-1.207031-6.292968 0-11.414062 5.121094-11.414062 11.414062v1.171876c0 6.292968 5.121094 11.414062 11.414062 11.414062zm18.320313 104h122.496094c2.5625 0 5.105469-.128906 7.640625-.34375-6.296875-4.03125-12.238282-8.703125-17.648438-14.113281l-70.910156-70.910157c-4.351562-4.34375-6.792969-10.03125-7.160156-16.121093l-53.433594 31.167969c-11.550781 6.726562-18.71875 19.214843-18.71875 32.585937 0 20.804687 16.929688 37.734375 37.734375 37.734375zm0 0" fill="url(#a)"/></svg>