<?xml version="1.0"?>
<svg xmlns="http://www.w3.org/2000/svg" xmlns:xlink="http://www.w3.org/1999/xlink" version="1.1" id="Layer_1" x="0px" y="0px" viewBox="0 0 512.035 512.035" style="enable-background:new 0 0 512.035 512.035;" xml:space="preserve" width="512px" height="512px" class=""><g><g transform="translate(1 1)">
	<polygon style="fill:#6C5CE7" points="459.737,255.035 50.137,24.635 184.11,255.035 50.137,485.435  " data-original="#FFE100" class="" data-old_color="#6c5ce7"/>
	<polygon style="fill:#201B46" points="118.403,447.035 502.404,255.035 118.403,63.035 459.737,255.035  " data-original="#FFA800" class="active-path" data-old_color="#201b46"/>
	<polygon style="fill:#FFFFFF;" points="53.55,479.461 184.11,255.035 53.55,30.608 7.47,7.568 169.603,255.035 7.47,502.501  " data-original="#FFFFFF"/>
	<path d="M7.47,511.035c-2.56,0-5.12-0.853-5.973-2.56c-2.56-2.56-2.56-6.827-0.853-10.24l158.72-243.2L78.297,131.301   c-2.56-4.267-1.707-9.387,2.56-11.947c4.267-2.56,9.387-1.707,11.947,2.56l83.627,128c1.707,2.56,1.707,6.827,0,9.387   L31.363,480.315l452.267-225.28L32.217,29.755l27.307,41.813c2.56,4.267,1.707,9.387-2.56,11.947   c-4.267,1.707-9.387,0.853-11.947-3.413L0.643,11.835c-2.56-2.56-1.707-6.827,0.853-10.24c2.56-2.56,5.973-3.413,9.387-1.707   l494.933,247.467c2.56,1.707,5.12,4.267,5.12,7.68c0,3.413-1.707,5.973-5.12,7.68L10.883,510.181   C10.03,511.035,9.177,511.035,7.47,511.035z" data-original="#000000" class=""/>
	<path d="M75.737,101.435c0-5.12-3.413-8.533-8.533-8.533s-8.533,3.413-8.533,8.533c0,5.12,3.413,8.533,8.533,8.533   S75.737,106.555,75.737,101.435" data-original="#000000" class=""/>
</g></g> </svg>
