<svg height="511pt" viewBox="0 -8 511.99966 511" width="511pt" xmlns="http://www.w3.org/2000/svg" xmlns:xlink="http://www.w3.org/1999/xlink"><linearGradient id="a" gradientTransform="matrix(.375351 0 0 -.375351 -.000013 511.655)" gradientUnits="userSpaceOnUse" x1="124.7352" x2="1071.2878" y1="241.5877" y2="1188.1633"><stop offset="0" stop-color="#41dfd0"/><stop offset="1" stop-color="#ee83ef"/></linearGradient><path d="m1.113281 180.582031c1.125 2 2.996094 3.472657 5.203125 4.09375l116.996094 32.621094c.761719.21875 1.550781.328125 2.34375.324219 3.890625-.007813 7.300781-2.597656 8.347656-6.34375l4.65625-16.71875 67.265625 18.757812 13.171875 46.851563c.21875.628906.511719 1.234375.867188 1.804687-14.34375 18.90625-10.640625 45.863282 8.269531 60.207032 3.417969 2.589843 7.203125 4.65625 11.234375 6.128906l-102.210938 149.375h-12.78125c-4.792968 0-8.675781 3.886718-8.675781 8.675781 0 4.792969 3.882813 8.675781 8.675781 8.675781h34.703126c4.792968 0 8.675781-3.882812 8.675781-8.675781 0-4.789063-3.882813-8.675781-8.675781-8.675781h-.867188l87.628906-128.117188v128.117188h-8.675781c-4.792969 0-8.675781 3.886718-8.675781 8.675781 0 4.792969 3.882812 8.675781 8.675781 8.675781h34.703125c4.792969 0 8.675781-3.882812 8.675781-8.675781 0-4.789063-3.882812-8.675781-8.675781-8.675781h-8.675781v-128.117188l87.628906 128.117188h-.867187c-4.792969 0-8.675782 3.886718-8.675782 8.675781 0 4.792969 3.882813 8.675781 8.675782 8.675781h34.703124c4.792969 0 8.675782-3.882812 8.675782-8.675781 0-4.789063-3.882813-8.675781-8.675782-8.675781h-12.78125l-102.21875-149.390625c22.304688-8.152344 33.78125-32.839844 25.632813-55.144531-1.421875-3.890626-3.398437-7.558594-5.871094-10.882813l6.683594-23.773437 43.066406 12.007812c.753907.222656 1.539063.332031 2.324219.332031.742188 0 1.480469-.097656 2.195312-.289062.722657-.203125 1.421876-.492188 2.074219-.867188l39.613281-22.347656 38.324219 10.730469-2.335937 8.355468c-1.273438 4.621094 1.433594 9.398438 6.050781 10.675782.007813 0 .015625.003906.023437.003906l50.148438 13.996094c.757812.214844 1.542969.320312 2.332031.320312 3.894531-.003906 7.304688-2.601562 8.347657-6.351562l23.3125-83.574219c1.28125-4.613281-1.410157-9.390625-6.019532-10.679687l-50.15625-13.980469c-4.613281-1.28125-9.390625 1.414062-10.679687 6.023437l-2.335938 8.355469-38.320312-10.691406-22.34375-39.621094c-.507813-.867187-1.167969-1.640625-1.941407-2.28125-.226562-.191406-.476562-.339844-.730468-.511719-.636719-.441406-1.328125-.792968-2.054688-1.050781-.183594-.0625-.3125-.199219-.496094-.253906l-80.511718-22.453125 14.636718-10.410156 27.71875 7.730468c.757813.214844 1.542969.320313 2.332032.320313 3.894531 0 7.308594-2.59375 8.355468-6.339844l9.320313-33.429687c1.28125-4.613282-1.414063-9.390626-6.023437-10.679688l-83.617188-23.359375c-2.21875-.628906-4.59375-.339844-6.59375.800781-2 1.125-3.472656 2.996094-4.097656 5.207032l-9.316406 33.445312c-1.28125 4.609375 1.410156 9.390625 6.019531 10.679688l34.394531 9.59375-14.644531 10.457031-98.597657-27.503907 4.667969-16.71875c1.277344-4.617187-1.429687-9.398437-6.050781-10.675781-.007812 0-.015625-.003906-.023438-.003906l-116.953124-32.632813c-4.613282-1.285156-9.398438 1.410157-10.6875 6.023438l-46.617188 167.179688c-.609375 2.203124-.3203125 4.5625.800781 6.558593zm253.503907 133.230469c-14.375 0-26.027344-11.65625-26.027344-26.03125s11.652344-26.027344 26.027344-26.027344 26.027343 11.652344 26.027343 26.027344-11.652343 26.03125-26.027343 26.03125zm-29.097657-95.039062 53.972657 15.0625-4.476563 15.902343c-12.664063-7.109375-28.117187-7.109375-40.777344 0zm233.636719-42.910157 33.445312 9.316407-18.652343 66.867187-33.4375-9.328125zm-54.796875 2.722657 33.425781 9.316406-9.324218 33.429687-33.421876-9.308593zm-27.410156-30.921876 12.050781 21.371094-12.050781 43.214844-21.367188 12.09375.292969-1.066406zm-109.109375-93.734374 4.667968-16.722657 66.867188 18.65625-4.667969 16.71875zm95.707031 77.214843-27.972656 100.320313-192.21875-53.617188 27.972656-100.285156zm-268.804687-101.960937 66.859374 18.644531-41.957031 150.433594-66.859375-18.644531zm-33.425782-9.328125 16.71875 4.667969-41.949218 150.425781-16.730469-4.65625zm184.625 259.25h17.351563v17.351562h-17.351563zm0 0" fill="url(#a)"/></svg>