<?xml version="1.0" encoding="iso-8859-1"?>
<!-- Generator: Adobe Illustrator 21.0.0, SVG Export Plug-In . SVG Version: 6.00 Build 0)  -->
<svg version="1.1" id="Capa_1" xmlns="http://www.w3.org/2000/svg" xmlns:xlink="http://www.w3.org/1999/xlink" x="0px" y="0px"
	 viewBox="0 0 512 512" style="enable-background:new 0 0 512 512;" xml:space="preserve">
<path style="fill:#5A5555;" d="M299.771,294.482v203.432c0,3.403-2.758,6.171-6.171,6.171h-22.621c-3.403,0-6.171-2.769-6.171-6.171
	V294.482H299.771z"/>
<path style="fill:#736E6E;" d="M299.771,294.482v203.432c0,3.403-2.758,6.171-6.171,6.171h-6.242c-3.413,0-6.171-2.769-6.171-6.171
	V294.482H299.771z"/>
<g>
	<path style="fill:#5A5555;" d="M262.925,294.482l-43.481,204.7c-0.604,2.859-3.121,4.903-6.04,4.903h-23.387
		c-3.926,0-6.846-3.604-6.04-7.44l42.947-202.163H262.925z"/>
	<path style="fill:#5A5555;" d="M374.572,504.085h-23.387c-2.92,0-5.436-2.044-6.04-4.903l-43.491-204.7h36.001l42.958,202.163
		C381.418,500.481,378.488,504.085,374.572,504.085z"/>
</g>
<g>
	<path style="fill:#736E6E;" d="M262.925,294.482l-43.481,204.7c-0.604,2.859-3.121,4.903-6.04,4.903h-5.91
		c-3.916,0-6.846-3.604-6.04-7.44l42.958-202.163H262.925z"/>
	<path style="fill:#736E6E;" d="M374.572,504.085h-5.91c-2.92,0-5.436-2.044-6.04-4.903l-43.481-204.7h18.514l42.958,202.163
		C381.418,500.481,378.488,504.085,374.572,504.085z"/>
</g>
<path style="fill:#5A5555;" d="M313.382,181.315v93.103c0,7.279-5.899,13.168-13.168,13.168h-35.84
	c-7.279,0-13.168-5.889-13.168-13.168v-93.103L313.382,181.315L313.382,181.315z"/>
<path style="fill:#736E6E;" d="M313.382,181.315v93.103c0,7.279-5.899,13.168-13.168,13.168h-4.752
	c-7.279,0-13.168-5.889-13.168-13.168v-93.103L313.382,181.315L313.382,181.315z"/>
<polygon style="fill:#5A5555;" points="189.403,220.87 63.339,264.18 55.668,241.85 48.268,220.326 174.332,177.016 181.731,198.55 
	"/>
<polygon style="fill:#736E6E;" points="189.403,220.87 63.339,264.18 55.668,241.85 181.731,198.55 "/>
<path style="fill:#5A5555;" d="M489.713,162.036c-9.383,13.299-22.893,23.87-39.454,29.558L398.12,39.828
	c30.695-10.541,63.404-1.399,84.355,20.719c7.661,8.074,13.752,17.88,17.598,29.095C508.78,114.981,504.069,141.7,489.713,162.036z"
	/>
<path style="fill:#736E6E;" d="M489.713,162.036L461.262,79.2c-2.824-8.221,2.638-16.947,11.262-18.031
	c3.327-0.418,6.65-0.623,9.95-0.623c7.661,8.074,13.752,17.88,17.598,29.095C508.78,114.981,504.069,141.7,489.713,162.036z"/>
<path style="fill:#F44545;" d="M79.326,296.335l-22.863,7.853c-8.285,2.849-17.306-1.56-20.155-9.846L8.411,213.138
	c-2.839-8.285,1.571-17.306,9.856-20.155l14.185-4.873l8.678-2.98c8.285-2.849,17.306,1.56,20.155,9.846l22.44,65.357l5.446,15.846
	C92.021,284.465,87.611,293.486,79.326,296.335z"/>
<path style="fill:#FB5858;" d="M83.725,260.334l-8.678,2.98c-8.285,2.849-17.306-1.56-20.155-9.846l-22.44-65.357l8.678-2.98
	c8.285-2.849,17.306,1.56,20.155,9.846L83.725,260.334z"/>
<path style="fill:#F44545;" d="M456.359,179.835l-311.384,74.418c-1.983,0.473-3.997-0.634-4.661-2.557l-23.336-67.935
	c-0.654-1.923,0.252-4.027,2.094-4.873l19.39-8.9L410.17,45.355l35.175,102.426L456.359,179.835z"/>
<path style="fill:#FB5858;" d="M445.346,147.78L158.184,216.42c-1.983,0.473-3.997-0.634-4.651-2.557l-15.071-43.874L410.17,45.355
	L445.346,147.78z"/>
<path style="fill:#D63030;" d="M466.165,218.504l-42.937,14.749c-8.648,2.97-18.061-1.631-21.031-10.269L340.927,44.59
	c-2.97-8.638,1.631-18.051,10.269-21.021l19.631-6.745l23.316-8.004c8.638-2.97,18.051,1.631,21.021,10.269L472.8,186.882
	l3.644,10.601C479.414,206.121,474.813,215.534,466.165,218.504z"/>
<path style="fill:#F44545;" d="M472.8,186.882l-23.316,8.014c-8.648,2.97-18.061-1.631-21.021-10.279L370.827,16.824l23.316-8.004
	c8.638-2.97,18.051,1.631,21.021,10.269L472.8,186.882z"/>
<path style="fill:#D63030;" d="M349.353,290.274c0,4.812-1.943,9.161-5.094,12.312c-3.151,3.151-7.5,5.094-12.312,5.094h-99.305
	c-9.614,0-17.417-7.792-17.417-17.407c0-4.812,1.953-9.161,5.104-12.312c3.151-3.151,7.5-5.094,12.312-5.094h99.305
	C341.561,272.868,349.353,280.66,349.353,290.274z"/>
<path style="fill:#F44545;" d="M349.353,290.274h-91.885c-9.614,0-17.407-7.792-17.407-17.407h91.885
	C341.561,272.868,349.353,280.66,349.353,290.274z"/>
<path d="M510.895,101.883c-0.664-4.118-4.53-6.916-8.658-6.262c-4.118,0.664-6.916,4.54-6.252,8.658
	c3.888,24.301-4.911,47.924-21.605,63.948L431.493,43.372c22.783,2.326,43.511,15.403,55.26,35.306
	c1.409,2.386,3.926,3.705,6.504,3.705c5.767,0,9.498-6.304,6.493-11.386c-15.353-26.004-43.411-42.384-73.562-43.068l-3.876-11.286
	c-4.33-12.594-18.021-19.294-30.625-14.96l-42.937,14.749c-12.445,4.259-19.336,17.886-14.96,30.615l7.43,21.625l-132.507,60.787
	c-3.785,1.742-5.457,6.222-3.715,10.017c1.742,3.785,6.222,5.446,10.007,3.715l131.148-60.163l36.615,106.624v0.01l-61.834,14.779
	l-15.101,3.604l-47.075,11.255l-15.101,3.604l-97.261,23.246c0.075,0.219,0.339,1.012-21.212-61.753l62.378-28.612
	c3.785-1.742,5.446-6.222,3.715-10.017c-1.742-3.785-6.222-5.446-10.017-3.715l-68.589,31.461c-3.524,1.621-5.245,5.648-3.987,9.322
	l2.688,7.832l-38.981,13.39l-3.967-11.537c-4.188-12.202-17.537-18.735-29.749-14.537l-22.863,7.863
	c-12.212,4.188-18.735,17.537-14.537,29.749l27.897,81.193c4.175,12.158,17.471,18.762,29.749,14.537l22.863-7.853
	c5.91-2.034,10.681-6.242,13.43-11.859c2.748-5.618,3.141-11.97,1.107-17.89l-3.967-11.537l38.991-13.39l3,8.749
	c1.067,3.101,3.977,5.094,7.138,5.094c1.755,0-4.532,1.218,102.174-24.202v26.88h-11.014c-13.762,0-24.967,11.195-24.967,24.957
	c0,7.44,3.272,14.135,8.457,18.705l-39.545,186.106c-0.856,4.067,0.151,8.245,2.769,11.477c2.618,3.222,6.504,5.074,10.661,5.074
	h23.387c6.453,0,12.101-4.581,13.42-10.883l30.434-143.239v140.4c0,7.561,6.161,13.722,13.722,13.722H293.6
	c7.571,0,13.722-6.161,13.722-13.722v-140.44l30.434,143.259c1.329,6.322,6.977,10.903,13.43,10.903h23.387
	c7.571,0,13.722-6.151,13.722-13.712c0-0.946-0.101-1.903-0.292-2.849l-6.181-29.065c-0.866-4.077-4.873-6.685-8.95-5.809
	c-4.077,0.866-6.685,4.873-5.819,8.95l5.819,27.383h-20.568l-38.518-181.293c18.68-0.038,18.507,0.09,20.537-0.121l26.447,124.493
	c0.876,4.077,4.883,6.685,8.96,5.809c4.077-0.866,6.685-4.873,5.819-8.95l-27.091-127.493c17.11-15.145,6.51-43.662-16.51-43.662
	h-11.014v-45.354l66.767-15.957l7.359,21.423c2.094,6.091,6.433,11.004,12.212,13.823c5.819,2.857,12.441,3.203,18.403,1.138
	l42.947-14.749c12.564-4.319,19.279-18.051,14.96-30.615l-3.896-11.346C503.701,163.98,515.887,132.867,510.895,101.883z
	 M76.879,289.187l-22.873,7.863c-4.329,1.49-9.071-0.826-10.561-5.165l-27.887-81.204c-1.49-4.329,0.826-9.071,5.155-10.561
	c23.735-7.992,23.159-8.306,25.561-8.306c3.453,0,6.685,2.175,7.873,5.618c22.703,66.123,13.537,39.416,27.887,81.193
	C83.541,283.002,81.177,287.72,76.879,289.187z M87.45,247.911l-10.158-29.578l38.981-13.39l10.158,29.578L87.45,247.911z
	 M258.757,234.823l47.075-11.245v41.739h-47.075V234.823z M212.286,496.535h-20.568l38.548-181.414
	c2.032,0.21,1.868,0.083,20.527,0.121L212.286,496.535z M292.221,496.535h-19.863V315.241h19.863V496.535z M331.947,280.418
	c5.4,0,9.856,4.386,9.856,9.856c0,5.436-4.42,9.866-9.856,9.866c-34.592,0-64.358,0-99.305,0c-5.436,0-9.866-4.43-9.866-9.866
	c0-5.41,4.401-9.856,9.866-9.856C247.384,280.418,322.095,280.418,331.947,280.418z M469.789,202.859
	c0,3.725-2.346,7.218-6.071,8.507l-42.947,14.749c-4.709,1.604-9.829-0.898-11.427-5.587
	c-11.753-34.208-41.027-119.411-61.28-178.384c-1.582-4.641,0.822-9.792,5.587-11.437l42.947-14.749
	c4.809-1.62,9.824,0.944,11.426,5.587c2.089,6.084,7.913,23.038,7.551,21.977C472.986,210.677,469.789,200.607,469.789,202.859z"/>
<g>
</g>
<g>
</g>
<g>
</g>
<g>
</g>
<g>
</g>
<g>
</g>
<g>
</g>
<g>
</g>
<g>
</g>
<g>
</g>
<g>
</g>
<g>
</g>
<g>
</g>
<g>
</g>
<g>
</g>
</svg>
