<?xml version="1.0" encoding="iso-8859-1"?>
<!-- Generator: Adobe Illustrator 19.0.0, SVG Export Plug-In . SVG Version: 6.00 Build 0)  -->
<svg version="1.1" id="Capa_1" xmlns="http://www.w3.org/2000/svg" xmlns:xlink="http://www.w3.org/1999/xlink" x="0px" y="0px"
	 viewBox="0 0 511.207 511.207" style="enable-background:new 0 0 511.207 511.207;" xml:space="preserve">
<g>
	<path style="fill:#805333;" d="M78.755,246.646c-7.409-8.664-17.568-14.523-28.778-16.596c-1.999-0.127-3.999,0.237-5.826,1.059
		c-5.303-13.328-8.404-27.431-9.181-41.754c-2.242-41.206,9.007-82.021,32.044-116.259c9.795-14.666,21.692-27.812,35.31-39.018
		c23.26-19.904,52.342-31.735,82.891-33.721c12.296-0.909,24.659-0.077,36.723,2.472c9.269,2.295,23.129,8.474,25.07,17.655
		l0.971,0.618h0.088c6.047-8.84,15.176-15.104,25.6-17.567c12.991-3.146,26.403-4.189,39.724-3.09
		c34.012,2.892,65.877,17.823,89.865,42.108c14.979,14.389,27.847,30.824,38.223,48.817c25.238,44.146,37.278,94.606,34.692,145.39
		c-0.949,21.831-5.761,43.32-14.212,63.47c-1.147,2.648-2.295,5.297-3.619,7.945l-7.062,0.088c-0.585-0.076-1.176-0.105-1.766-0.088
		H411.29L78.755,246.646z"/>
	<path style="fill:#F09372;" d="M89.465,328.361l-0.265,0.088c-2.321,2.548-5.23,4.487-8.474,5.65
		c-18.626,5.914-31.073-24.629-35.928-37.605c-6.532-17.39-14.036-38.93-7.415-57.379c1.318-4.244,4.362-7.737,8.386-9.622
		c1.827-0.822,3.827-1.186,5.826-1.059c11.21,2.073,21.369,7.932,28.778,16.596C80.081,273.068,83.133,301.043,89.465,328.361z"/>
	<path style="fill:#805333;" d="M466.993,413.311c-9.887,34.957-59.321,52.348-9.887,95.956c0,0-104.783,23.128-84.392-90.306
		c15.035-24.739,26.059-51.703,32.662-79.89v13.241h41.843C447.219,352.312,476.791,378.442,466.993,413.311z"/>
	<path style="fill:#FF5364;" d="M473.348,320.533v10.593c-0.034,11.687-9.5,21.152-21.186,21.186h-52.966v-15.89
		c2.988-12.231,5.357-24.606,7.097-37.076h45.868c0.708-0.02,1.416,0.015,2.119,0.106
		C465.094,300.566,473.322,309.663,473.348,320.533z"/>
	<path style="fill:#FDD7AD;" d="M414.292,268.627c-0.12,13.235-1.122,26.447-3.001,39.548c-1.451,10.392-3.425,20.704-5.914,30.897
		c-6.603,28.187-17.627,55.15-32.662,79.89c-23.146,37.923-57.25,67.934-97.81,86.069c-17.975,8.149-38.585,8.181-56.585,0.088
		C135.34,467.512,101.53,390.271,87.848,329.978c-6.332-27.317-9.385-55.292-9.092-83.332c0,0,0-150.334,141.241-123.851
		l1.942-0.441h0.088c3.52,17.688,12.579,33.796,25.865,45.992c17.743,15.801,42.903,22.157,66.03,26.748
		c19.505,2.949,38.688,7.737,57.291,14.301c7.616,2.995,14.823,6.94,21.451,11.741c13.489,10.15,21.458,26.021,21.539,42.902
		C414.204,264.036,414.292,265.625,414.292,268.627z"/>
	<g>
		<path style="fill:#59474E;" d="M221.669,231.39c-2.081,0.002-4.096-0.734-5.685-2.078c-20.449-17.241-39.841-24.957-57.621-23.008
			c-12.991,1.68-24.883,8.161-33.336,18.168c-2.928,3.873-8.434,4.654-12.324,1.749c-3.89-2.905-4.704-8.406-1.822-12.313
			c11.279-13.861,27.458-22.851,45.185-25.109c22.875-2.655,46.875,6.422,71.297,27.013c2.836,2.39,3.875,6.297,2.602,9.781
			C228.692,229.075,225.378,231.391,221.669,231.39L221.669,231.39z"/>
		<path style="fill:#59474E;" d="M271.29,231.39c-3.708,0.002-7.023-2.314-8.296-5.797c-1.273-3.483-0.234-7.391,2.602-9.781
			c24.422-20.582,48.427-29.677,71.297-27.013c17.727,2.257,33.906,11.247,45.185,25.108c2.889,3.908,2.076,9.417-1.819,12.324
			c-3.895,2.907-9.407,2.119-12.332-1.763c-8.453-10.004-20.343-16.483-33.332-18.163c-17.759-1.931-37.164,5.772-57.621,23.009
			C275.386,230.656,273.371,231.392,271.29,231.39z"/>
	</g>
	<path style="fill:#804537;" d="M193.514,260.24v25.865c0,12.188-9.881,22.069-22.069,22.069s-22.069-9.881-22.069-22.069v-25.777"
		/>
	<path style="fill:#2C2F38;" d="M219.988,281.691c-1.758,0.002-3.476-0.525-4.931-1.513c-25.885-18.533-60.656-18.685-86.703-0.38
		c-2.476,1.976-5.82,2.473-8.764,1.305c-2.944-1.169-5.036-3.826-5.482-6.961c-0.446-3.136,0.822-6.27,3.323-8.214
		c32.136-22.889,75.208-23.041,107.504-0.38c3.216,2.173,4.636,6.191,3.499,9.902C227.297,279.162,223.869,281.695,219.988,281.691z
		"/>
	<path style="fill:#804537;" d="M343.583,260.329v25.777c0,12.188-9.881,22.069-22.069,22.069s-22.069-9.881-22.069-22.069V260.24"
		/>
	<path style="fill:#2C2F38;" d="M272.971,281.691c-3.881,0.003-7.309-2.53-8.446-6.24c-1.137-3.711,0.282-7.729,3.498-9.902
		c32.297-22.66,75.368-22.508,107.504,0.38c3.833,3.013,4.497,8.562,1.485,12.394c-3.013,3.833-8.562,4.497-12.394,1.485
		c-25.978-18.534-60.897-18.385-86.716,0.371C276.447,281.166,274.729,281.694,272.971,281.691z"/>
	<g>
		<path style="fill:#CC4B4C;" d="M216.01,368.98c1.23,0.63,2.592,0.958,3.974,0.957c3.318-0.001,6.358-1.851,7.884-4.797
			c3.684-7.106,10.66-11.914,18.612-12.828c7.951,0.911,14.928,5.718,18.612,12.823c2.194,4.354,7.502,6.105,11.856,3.912
			c4.354-2.194,6.105-7.502,3.912-11.856c-5.399-10.186-14.57-17.854-25.552-21.363v-27.654c0-4.875-3.952-8.828-8.828-8.828
			s-8.828,3.952-8.828,8.828v27.616c-10.993,3.509-20.168,11.194-25.552,21.401C209.937,361.527,211.684,366.796,216.01,368.98z"/>
		<path style="fill:#CC4B4C;" d="M299.445,414.105H193.514c-4.875,0-8.828,3.952-8.828,8.828c0,4.875,3.952,8.828,8.828,8.828
			h105.931c4.875,0,8.828-3.952,8.828-8.828C308.273,418.057,304.32,414.105,299.445,414.105z"/>
		<path style="fill:#CC4B4C;" d="M255.307,449.415h-17.655c-4.875,0-8.828,3.952-8.828,8.828s3.952,8.828,8.828,8.828h17.655
			c4.875,0,8.828-3.952,8.828-8.828S260.182,449.415,255.307,449.415z"/>
	</g>
	<path style="fill:#59474E;" d="M230.971,113.967c-4.177-0.006-7.779-2.937-8.633-7.026c-3.215-15.641-3.12-31.782,0.28-47.384
		c0.667-3.087,2.933-5.583,5.942-6.544c3.009-0.961,6.302-0.242,8.635,1.886s3.353,5.341,2.673,8.425
		c-2.876,13.174-2.959,26.805-0.246,40.013c0.994,4.773-2.068,9.448-6.84,10.444C232.186,113.905,231.579,113.967,230.971,113.967z"
		/>
</g>
<g>
</g>
<g>
</g>
<g>
</g>
<g>
</g>
<g>
</g>
<g>
</g>
<g>
</g>
<g>
</g>
<g>
</g>
<g>
</g>
<g>
</g>
<g>
</g>
<g>
</g>
<g>
</g>
<g>
</g>
</svg>
